<?xml version="1.0" encoding="UTF-8" standalone="no"?>
<!-- Created with Inkscape (http://www.inkscape.org/) -->

<svg
   xmlns:dc="http://purl.org/dc/elements/1.1/"
   xmlns:cc="http://creativecommons.org/ns#"
   xmlns:rdf="http://www.w3.org/1999/02/22-rdf-syntax-ns#"
   xmlns:svg="http://www.w3.org/2000/svg"
   xmlns="http://www.w3.org/2000/svg"
   version="1.1"
   width="2479.9062"
   height="4123.395"
   id="svg4006">
  <defs
     id="defs4008" />
  <metadata
     id="metadata4011">
    <rdf:RDF>
      <cc:Work
         rdf:about="">
        <dc:format>image/svg+xml</dc:format>
        <dc:type
           rdf:resource="http://purl.org/dc/dcmitype/StillImage" />
        <dc:title></dc:title>
      </cc:Work>
    </rdf:RDF>
  </metadata>
  <g
     transform="translate(0,10.001274)"
     id="g3775">
    <path
       d="m 1708.6241,2768.649 33.809,65.885 9.5313,14.188 74.875,70.125 83,-50.25 -27.4375,-98.844 -8.1562,-15.031 -46.2188,-65.5 105.3125,-85.344 54.5,58.781 13,11.094 91.0313,47.313 66.3437,-70.782 -53.0937,-87.781 -11.9063,-12.25 -62.1563,-50.594 78.375,-110.593 68.3438,41.906 15.5,7.156 100.4062,21.031 44.8126,-86.093 -74.8126,-70.188 -14.7812,-8.594 -73.5,-31.937 45.625,-127.657 77.125,21.938 16.875,2.688 102.3438,-6.844 19.9062,-94.969 -90.9688,-47.406 -16.5312,-4.281 -79.4062,-10.938 9.5,-135.219 80.1562,0.313 16.9688,-1.938 96.7187,-34.218 -6.4375,-96.813 -100.375,-21.125 -17.0938,0.344 -79.4062,10.906 -27.3438,-132.781 77.2813,-21.344 15.8125,-6.437 83.9062,-59.032 -32.3124,-91.5 -102.375,6.782 -16.375,4.906 -73.5313,31.937 -62.125,-120.469 68.6563,-41.406 13.5,-10.468 64.8437,-79.5 -55.7813,-79.376 -96.75,34.126 -14.4374,9.156 -62.1876,50.594 -92.3437,-99.25 54.9375,-58.376 10.1562,-13.75 41.0313,-94.031 -75.1563,-61.375 -83.9374,58.969 -11.4376,12.719 -46.2187,65.5 -115.6875,-70.656 37.125,-71.063 6.0938,-15.969 14.125,-101.594 -88.9376,-38.843 -64.9062,79.437 -7.5938,15.313 -26.8437,75.531 -130.4687,-36.812 16.625,-78.438 1.5312,-17 -13.8125,-101.656 -96.0937,-13.406 -41.0938,94 -3.1562,16.812 -5.4688,79.969 -135.5625,-0.25 -5.1875,-80 -3.0938,-16.813 -40.7187,-94.156 2e-4,0 -96.1563,13.031 -14.1874,101.594 1.4687,17.031 16.3125,78.5 -130.5938,36.313 -26.5624,-75.625 -7.5313,-15.344 -64.625,-79.688 -89.0625,38.5 13.75,101.657 6,16 36.875,71.156 -115.9375,70.219 -46,-65.656 -11.375,-12.75 -83.7187,-59.282 -75.375,61.094 40.6562,94.188 10.125,13.75 54.6875,58.593 -92.6875,98.907 -62,-50.813 -14.4062,-9.219 -96.625,-34.5 -56.0938,79.156 64.5625,79.75 13.4687,10.5 68.4688,41.688 -62.5938,120.219 -73.4062,-32.188 -16.3438,-5 -102.3437,-7.156 -32.6563,91.375 83.6563,59.344 15.8125,6.5 77.1875,21.656 -27.8125,132.656 -79.4062,-11.218 -17.0626,-0.376 -100.4687,20.719 -6.8125,96.813 96.5938,34.562 16.9687,2 80.1563,0 9,135.25 -79.4688,10.625 -16.5625,4.25 -91.1563,47.063 19.5626,95.031 102.3437,7.219 16.875,-2.625 77.1875,-21.625 45.1562,127.812 -73.6562,31.656 -14.7812,8.563 -75.0938,69.906 44.5,86.219 100.4688,-20.625 15.5624,-7.125 68.5,-41.625 77.9376,110.875 -62.375,50.375 -11.9376,12.219 -53.4374,87.562 66.0937,71.063 91.2187,-47 13.0313,-11.031 54.7187,-58.594 105,85.75 -46.4687,65.344 -8.2187,14.968 -27.8126,98.75 82.8126,50.563 75.125,-69.844 9.5937,-14.156 c 5.5454,-6.811 22.5079,-49.925 32.9436,-65.031"
       id="path6392"
       style="fill:none;stroke:#ffffff;stroke-width:50;stroke-miterlimit:4;stroke-dasharray:none" />
    <path
       d="m 1125.0896,647.128 -96.1563,13.031 -14.1874,101.594 1.4687,17.031 16.3125,78.5 -130.5938,36.313 -26.5624,-75.625 -7.5313,-15.344 -64.625,-79.688 -89.0625,38.5 13.75,101.657 6,16 36.875,71.156 -115.9375,70.219 -46,-65.656 -11.375,-12.75 -83.7187,-59.282 -75.375,61.094 40.6562,94.188 10.125,13.75 54.6875,58.593 -92.6875,98.907 -62,-50.813 -14.4062,-9.219 -96.625,-34.5 -56.0938,79.156 64.5625,79.75 13.4687,10.5 68.4688,41.688 -62.5938,120.219 -73.4062,-32.188 -16.3438,-5 -102.3437,-7.156 -32.6563,91.375 83.6563,59.344 15.8125,6.5 77.1875,21.656 -27.8125,132.656 -79.4062,-11.218 -17.0626,-0.376 -100.4687,20.719 -6.8125,96.813 96.5938,34.562 16.9687,2 80.1563,0 9,135.25 -79.4688,10.625 -16.5625,4.25 -91.1563,47.063 19.5626,95.031 102.3437,7.219 16.875,-2.625 77.1875,-21.625 45.1562,127.812 -73.6562,31.656 -14.7812,8.563 -75.0938,69.906 44.5,86.219 100.4688,-20.625 15.5624,-7.125 68.5,-41.625 77.9376,110.875 -62.375,50.375 -11.9376,12.219 -53.4374,87.562 66.0937,71.063 91.2187,-47 13.0313,-11.031 54.7187,-58.594 105,85.75 -46.4687,65.344 -8.2187,14.968 -27.8126,98.75 82.8126,50.563 75.125,-69.844 9.5937,-14.156 36.875,-71.157 2.3437,1.032 c -2.6468,-5.364 -5.3129,-10.766 -8.0937,-16.188 -9.1188,-31.872 -76.7476,1.045 -94.2813,-297.125 -28.5592,-176.904 -9.211,-351.156 -98.5624,-531.437 -14.0507,-32.403 5.9668,-43.694 -30,-60 -21.9269,-33.699 11.8642,-108.271 45.7187,-182.875 24.7973,-54.145 53.5371,-92.55 71.4375,-174.281 10.3079,-19.07 24.9199,-44.02 42.8438,-22.844 1.0257,0.558 2.0367,1.085 3.0624,1.562 -3.8529,1.067 -6.8761,4.648 -7.2812,8.625 -6.7081,53.965 -18.3517,93.943 -27.625,128.25 -9.2733,34.308 -16.3839,63.359 -12.3438,94.281 l 0.875,6.844 6.7188,1.594 c 44.175,10.539 87.3341,-8.734 130,-32.156 42.6659,-23.422 85.7764,-51.574 129.2812,-63.656 109.1161,-30.303 165.8315,-72.069 206.4063,-104.719 20.2874,-16.326 36.5069,-30.125 52.9375,-39.25 14.3768,-7.985 28.7854,-12.689 47.6562,-12.969 2.6958,-0.04 5.4842,0.01 8.375,0.156 61.7993,3.076 95.2117,42 132.2813,85.469 37.0696,43.468 77.4514,91.271 149.875,100.187 79.6081,9.802 157.1109,35.945 240.2187,70.719 20.5328,8.591 43.2308,3.403 63,-7.625 l 4.5,-2.531 0.5626,-5.094 c 5.4864,-49.117 -5.4516,-76.72 -16.625,-104.062 -11.1735,-27.343 -22.7117,-55.126 -21.875,-112.625 0.01,-0.512 -0.024,-1.025 -0.094,-1.532 38.6444,10.836 43.8452,105.323 67.25,154.25 20.4698,79.779 70.257,100.481 85.6875,200 3.3133,40.953 -43.3767,41.892 -28.5625,62.844 -90.307,135.238 -75.6714,270.481 -108.5625,405.719 -25.3733,80 -25.8994,160 -17.1563,240 -10.5916,82.164 -49.2057,148.138 -86.7187,212.063 l 2,-0.844 36.5937,71.312 9.5313,14.188 74.875,70.125 83,-50.25 -27.4375,-98.844 -8.1562,-15.031 -46.2188,-65.5 105.3125,-85.344 54.5,58.781 13,11.094 91.0313,47.313 66.3437,-70.782 -53.0937,-87.781 -11.9063,-12.25 -62.1563,-50.594 78.375,-110.593 68.3438,41.906 15.5,7.156 100.4062,21.031 44.8126,-86.093 -74.8126,-70.188 -14.7812,-8.594 -73.5,-31.937 45.625,-127.657 77.125,21.938 16.875,2.688 102.3438,-6.844 19.9062,-94.969 -90.9688,-47.406 -16.5312,-4.281 -79.4062,-10.938 9.5,-135.219 80.1562,0.313 16.9688,-1.938 96.7187,-34.218 -6.4375,-96.813 -100.375,-21.125 -17.0938,0.344 -79.4062,10.906 -27.3438,-132.781 77.2813,-21.344 15.8125,-6.437 83.9062,-59.032 -32.3124,-91.5 -102.375,6.782 -16.375,4.906 -73.5313,31.937 -62.125,-120.469 68.6563,-41.406 13.5,-10.468 64.8437,-79.5 -55.7813,-79.376 -96.75,34.126 -14.4374,9.156 -62.1876,50.594 -92.3437,-99.25 54.9375,-58.376 10.1562,-13.75 41.0313,-94.031 -75.1563,-61.375 -83.9374,58.969 -11.4376,12.719 -46.2187,65.5 -115.6875,-70.656 37.125,-71.063 6.0938,-15.969 14.125,-101.594 -88.9376,-38.843 -64.9062,79.437 -7.5938,15.313 -26.8437,75.531 -130.4687,-36.812 16.625,-78.438 1.5312,-17 -13.8125,-101.656 -96.0937,-13.406 -41.0938,94 -3.1562,16.812 -5.4688,79.969 -135.5625,-0.25 -5.1875,-80 -3.0938,-16.813 -40.7187,-94.156 z m 108.0313,494.688 c 119.4447,0.04 230.1993,34.123 314.5937,85.906 88.0824,60.894 80.2613,133.785 114.2813,201.437 28.4311,38.089 60.5718,68.124 110,60.719 l 0,0.562 c -0.8785,60.378 12.1583,93.097 23.3437,120.469 10.7277,26.252 19.4692,47.176 15.6875,89.031 -14.803,7.195 -29.2018,9.136 -40.875,4.25 -83.8949,-35.102 -163.176,-61.987 -245.5,-72.124 -64.7975,-7.979 -99.9761,-49.757 -137.0938,-93.282 -37.1176,-43.525 -76.5551,-89.018 -146.5,-92.5 -1.6595,-0.09 -3.2862,-0.136 -4.9062,-0.156 -1.62,-0.02 -3.2331,0 -4.8125,0.03 -22.1123,0.425 -40.4457,6.227 -57.0313,15.438 -18.9549,10.528 -35.7738,25.087 -55.7812,41.187 -40.0147,32.2 -92.9043,71.475 -199.2188,101 -47.8389,13.285 -91.8827,42.544 -133.5312,65.406 -38.9494,21.382 -74.9674,36.655 -108.75,31.563 -1.6192,-23.967 4.0718,-48.426 12.4375,-79.375 9.1909,-34.003 21.2467,-75.416 28.1563,-131 0.3912,-2.648 -0.3363,-5.442 -1.9688,-7.562 40.21,8.525 80.4142,-37.125 120.625,-50.813 22.8574,-84.561 39.9834,-170.192 151.4375,-240 80.2379,-34.255 161.7593,-49.477 239.7187,-50.156 1.9003,-0.02 3.7915,-0.03 5.6876,-0.03 z m 550.3437,346.343 c 0.2434,-0.01 0.4776,0 0.7187,0 -0.5491,0 -1.095,0.03 -1.6562,0.06 0.3085,-0.02 0.6327,-0.05 0.9375,-0.06 z m -1094.5,309.469 c -41.2599,0.35 -48.0616,11.366 -94.25,25.094 -38.1293,1.868 -48.2028,28.594 3,27.844 -0.6589,107.109 40.2372,100.167 47.125,178.593 4.3549,49.585 11.6363,91.064 18.8437,119.844 14.5202,57.982 51.6297,71.487 48.3126,-15.563 -1.8669,-48.987 17.4214,-81.176 45.7187,-98.593 -4.2393,-32.051 -25.0237,-52.911 -42.875,-62.844 -31.8926,-17.746 -44.5174,-99.759 -14.2813,-132.844 11.9352,-13.06 39.412,-25.847 34.5626,-33.062 -18.6205,-6.449 -21.1249,-7.986 -37.4063,-8.375 -3.0787,-0.07 -5.9993,-0.114 -8.75,-0.09 z m 1069.9375,0.844 c -5.1312,-0.03 -10.3535,5.612 -12.1875,16.375 l 39.5625,64.312 c 13.1338,33.04 0.4547,41.01 -8.5625,57.125 -13.7323,24.541 -19.1815,40.819 -40,50 -46.336,26.301 -36.595,46.996 -7.1563,65.719 43.4115,27.82 22.8965,68.461 28.5938,107.156 37.2213,83.961 47.9862,-23.454 60,-62.875 12.763,-63.428 16.628,-129.401 54.2812,-185.718 2.4838,-19.082 -1.0558,-36.134 -10,-51.407 37.4361,-3.6 55.0832,-23.959 2.8438,-32.875 -49.7317,-8.488 -92.3175,-13.848 -100.7812,-24.218 -1.972,-2.417 -4.2614,-3.584 -6.5938,-3.594 z m -928.5938,316.281 c -2.6646,0.09 -5.2725,1.305 -7.0624,3.281 -16.792,18.042 -25.4562,38.753 -26.4063,60.625 -0.9501,21.873 5.4329,44.611 16.875,68.407 22.7658,47.343 65.8785,99.647 118.5937,159.218 62.2303,106.087 85.3097,202.246 83.9688,292.719 -0.041,2.62 0.987,5.245 2.8125,7.125 1.8255,1.88 4.4108,2.991 7.0313,3.031 2.6204,0.04 5.2474,-0.984 7.125,-2.812 1.8777,-1.828 2.9982,-4.442 3.0312,-7.063 1.3976,-94.296 -22.9826,-194.731 -87.0938,-303.781 l -0.5,-0.844 -0.625,-0.719 c -52.8051,-59.635 -95.2503,-111.762 -116.3124,-155.562 -10.5312,-21.901 -15.66,-41.525 -14.9063,-58.875 0.7537,-17.351 6.9826,-32.75 21.0313,-47.844 2.6475,-2.769 3.4744,-7.107 2.0312,-10.656 -1.4432,-3.549 -5.0777,-6.115 -8.9062,-6.25 -0.2292,-0.01 -0.4586,-0.01 -0.6876,0 z m 811.3126,8.563 c -3.4504,0.106 -6.8008,2.165 -8.4688,5.187 -1.6679,3.023 -1.5925,6.899 0.1562,9.875 27.1558,47.867 14.2722,96.63 -15.0937,147.125 -29.3659,50.495 -75.1285,100.526 -109.875,146.156 -85.1477,111.819 -86.8068,184.943 -97.7187,280.625 -0.2987,2.602 0.4652,5.324 2.0937,7.375 1.6284,2.051 4.0858,3.421 6.6875,3.719 2.6016,0.299 5.3242,-0.465 7.375,-2.094 2.0508,-1.628 3.4201,-4.116 3.7188,-6.718 11.0219,-96.648 11.0129,-162.129 93.75,-270.782 33.8584,-44.464 80.2564,-94.923 111.25,-148.218 30.9935,-53.294 46.6457,-111.611 15.1874,-167.063 -1.7609,-3.211 -5.402,-5.294 -9.0624,-5.187 z m -722,826.156 c -1.5055,0.05 -3.0687,0.309 -4.625,0.875 -3.1128,1.13 -5.7495,3.536 -7.25,5.969 -3.0013,4.865 -2.9552,9.235 -2.75,13.562 0.8202,17.307 10.1469,40.033 14.875,51.625 0.7624,1.869 1.5797,3.664 2.4374,5.375 l 29.5,8.312 c -5.0052,-6.545 -10.0953,-13.132 -13.4062,-21.25 -3.938,-9.654 -10.7335,-29.328 -12.6562,-40.531 4.2056,3.028 10.0188,7.719 17.6562,15.563 1.8139,1.921 4.3897,3.096 7.0312,3.156 2.6416,0.06 5.2926,-1.003 7.1876,-2.844 1.8949,-1.841 3.0122,-4.452 3.0312,-7.094 0.019,-2.641 -1.0379,-5.287 -2.9062,-7.156 -14.7284,-15.125 -23.1481,-22.862 -33.8126,-25.156 -1.333,-0.287 -2.8072,-0.456 -4.3124,-0.406 z m 620.3437,6.937 c -0.6069,-0.01 -1.2096,0.02 -1.7813,0.06 -9.1466,0.692 -17.8087,5.216 -30,12.718 -2.3207,1.326 -4.0877,3.63 -4.75,6.219 -0.6622,2.589 -0.2118,5.442 1.1876,7.719 1.3994,2.276 3.7347,3.953 6.3437,4.531 2.609,0.578 5.4575,0.03 7.6875,-1.437 7.7745,-4.785 13.1436,-7.058 16.8438,-8.375 -1.2023,4.327 -3.7648,11.16 -7.9688,19.531 -4.054,8.072 -9.5287,17.752 -16.25,28.812 l 7.0312,11.594 11.2188,-3.125 c 6.3905,-10.592 11.7272,-20.053 15.875,-28.312 6.2534,-12.453 10.1388,-21.83 10.8438,-30.688 0.3523,-4.429 -0.1201,-9.563 -3.8438,-13.906 -3.2582,-3.8 -8.1894,-5.274 -12.4375,-5.344 z m 71.875,28.938 c -2.6414,9.861 -5.0639,19.292 -7.3437,28.437 l 7.2812,-2.031 0.062,-26.406 z"
       id="path5473-7"
       style="fill:#ff3000;fill-opacity:1;stroke:none" />
    <path
       d="m 1233.1064,1141.827 c -1.896,0 -3.7873,0.01 -5.6875,0.03 -77.9594,0.679 -159.4809,15.902 -239.7188,50.157 -111.4541,69.808 -128.5801,155.439 -151.4375,240 -40.2108,13.688 -80.415,59.338 -120.625,50.812 1.6325,2.121 2.36,4.915 1.9688,7.563 -6.9095,55.584 -18.9654,96.997 -28.1563,131 -8.3657,30.949 -14.0567,55.408 -12.4375,79.375 33.7826,5.092 69.8006,-10.181 108.75,-31.563 41.6485,-22.863 85.6924,-52.121 133.5313,-65.406 106.3144,-29.525 159.204,-68.8 199.2187,-101 20.0074,-16.1 36.8263,-30.66 55.7813,-41.188 16.5856,-9.211 34.9189,-15.012 57.0312,-15.437 1.5794,-0.03 3.1925,-0.05 4.8125,-0.03 1.62,0.02 3.2468,0.07 4.9063,0.156 69.9449,3.482 109.3823,48.975 146.5,92.5 37.1176,43.525 72.2962,85.303 137.0937,93.281 82.324,10.137 161.6051,37.022 245.5,72.125 11.6732,4.885 26.072,2.945 40.875,-4.25 3.7817,-41.856 -4.9598,-62.779 -15.6875,-89.031 -11.1854,-27.372 -24.2221,-60.091 -23.3437,-120.469 0,-0.187 0,-0.375 0,-0.562 -49.4282,7.405 -81.5688,-22.63 -110,-60.719 -34.02,-67.652 -26.1989,-140.543 -114.2813,-201.437 -84.3944,-51.783 -195.149,-85.865 -314.5937,-85.907 z m -1.4375,324.313 c -18.8708,0.28 -33.2795,4.984 -47.6563,12.969 -16.4306,9.125 -32.6501,22.924 -52.9375,39.25 -40.5748,32.65 -97.2901,74.416 -206.4062,104.718 -43.5048,12.082 -86.6154,40.235 -129.2813,63.657 -42.6659,23.422 -85.825,42.695 -130,32.156 l -6.7187,-1.594 -0.875,-6.844 c -4.0402,-30.922 3.0704,-59.973 12.3437,-94.281 9.2733,-34.307 20.9169,-74.285 27.625,-128.25 0.4051,-3.977 3.4284,-7.558 7.2813,-8.625 -1.0257,-0.477 -2.0367,-1.004 -3.0625,-1.562 -17.9238,-21.176 -32.5359,3.774 -42.8438,22.843 -17.9004,81.732 -46.6402,120.137 -71.4375,174.282 -33.8545,74.604 -67.6455,149.176 -45.7187,182.875 35.9668,16.306 15.9493,27.597 30,60 89.3514,180.281 70.0033,354.533 98.5625,531.437 17.5336,298.17 85.1624,265.253 94.2812,297.125 59.3458,115.704 87.9379,218.415 97.1563,305.719 7.6735,31.653 -9.2052,69.441 25.7187,94.281 24.8668,3.705 42.3432,14.804 25.7188,60 -4.337,22.201 6.1207,40.874 38.5625,55.719 91.9767,88.616 66.0711,163.64 64.2812,241.437 -2.0354,149.894 14.1935,255.597 28.6563,358.157 6.8257,48.403 3.2629,106.082 15.625,148.968 17.096,37.337 47.0783,43.687 70.6875,51.719 0.336,-14.512 -5.747,-46.745 7.125,-54.125 10.5146,0.612 1.6746,45.742 2.875,55.281 -0.032,0.78 -0.2923,1.52 -0.6875,2.188 0.5735,0.222 1.1468,0.426 1.7187,0.656 19.8033,19.036 50.3277,27.512 73,31.375 -0.01,-0.133 -0.033,-0.272 -0.031,-0.406 0,-12.694 -5.2475,-39.811 4.9375,-49.094 7.6772,6.725 3.6444,40.49 5.0625,49.094 0.01,0.647 -0.1243,1.287 -0.375,1.875 0.091,0.01 0.1911,0.02 0.2813,0.03 35.5029,11.19 60.3528,0.807 87.6562,-33.719 -0.7421,-0.84 -1.2359,-1.88 -1.2812,-3 1.1196,-9.094 -7.5079,-51.676 2.875,-52.281 12.5617,6.802 6.7672,37.419 7.125,51.188 20.2458,0.83 34.5047,-27.067 54.75,-43.625 28.5689,-64.842 36.703,-170.584 46.9062,-272.157 18.5535,-175.721 7.7939,-276.119 20.25,-400.718 50.6792,-52.912 88.6732,-103.781 101.4063,-164.282 -10.3322,-9.083 23.8636,-16.426 31.4375,-42.843 9.4109,-35.326 21.8098,-113.976 55.1875,-219.688 31.854,-124.042 140.1672,-219.211 159.0937,-366.031 -8.7432,-80 -8.217,-160 17.1563,-240 32.8911,-135.238 18.2555,-270.481 108.5625,-405.719 -14.8142,-20.952 31.8758,-21.891 28.5625,-62.844 -15.4305,-99.519 -65.2177,-120.222 -85.6875,-200 -23.4048,-48.928 -28.6056,-143.414 -67.25,-154.25 0.07,0.507 0.1017,1.02 0.094,1.532 -0.8366,57.499 10.7016,85.282 21.875,112.625 11.1734,27.342 22.1115,54.945 16.625,104.062 l -0.5625,5.094 -4.5,2.531 c -19.7692,11.028 -42.4673,16.216 -63,7.625 -83.1079,-34.774 -160.6107,-60.917 -240.2188,-70.719 -72.4236,-8.917 -112.8054,-56.719 -149.875,-100.187 -37.0696,-43.469 -70.4819,-82.393 -132.2812,-85.469 -2.8908,-0.144 -5.6792,-0.196 -8.375,-0.156 z m 551.7812,22.031 c -0.3048,0.01 -0.629,0.04 -0.9375,0.06 0.5612,-0.03 1.1072,-0.06 1.6563,-0.06 -0.2411,0 -0.4754,-0.01 -0.7188,0 z m -1094.5,309.469 c 2.7507,-0.02 5.6713,0.02 8.75,0.09 16.2814,0.389 18.7859,1.926 37.4063,8.375 4.8494,7.215 -22.6273,20.003 -34.5625,33.063 -30.2361,33.085 -17.6114,115.097 14.2812,132.843 17.8513,9.933 38.6357,30.793 42.875,62.844 -28.2973,17.417 -47.5855,49.606 -45.7187,98.594 3.3171,87.05 -33.7924,73.544 -48.3125,15.562 -7.2075,-28.78 -14.4889,-70.258 -18.8438,-119.843 -6.8878,-78.426 -47.7839,-71.484 -47.125,-178.594 -51.2028,0.75 -41.1293,-25.976 -3,-27.844 46.1884,-13.728 52.9901,-24.744 94.25,-25.094 z m 1069.9375,0.844 c 2.3324,0.01 4.6219,1.177 6.5938,3.593 8.4638,10.371 51.0495,15.731 100.7812,24.219 52.2394,8.916 34.5924,29.275 -2.8437,32.875 8.9442,15.273 12.4837,32.325 10,51.406 -37.6532,56.318 -41.5183,122.291 -54.2813,185.719 -12.0138,39.421 -22.7787,146.836 -60,62.875 -5.6973,-38.695 14.8178,-79.336 -28.5937,-107.156 -29.4388,-18.723 -39.1798,-39.418 7.1562,-65.719 20.8185,-9.181 26.2677,-25.459 40,-50 9.0172,-16.115 21.6963,-24.085 8.5625,-57.125 l -39.5625,-64.312 c 1.834,-10.763 7.0563,-16.401 12.1875,-16.375 z m -928.5937,316.281 c 0.229,-0.01 0.4584,-0.01 0.6875,0 3.8286,0.135 7.4675,2.678 8.9107,6.227 1.4432,3.549 0.6118,7.91 -2.0357,10.679 -14.0486,15.094 -20.2776,30.493 -21.0313,47.844 -0.7537,17.35 4.3752,36.974 14.9063,58.875 21.0621,43.8 63.5074,95.927 116.3125,155.562 l 0.625,0.719 0.5,0.844 c 64.1112,109.05 88.4913,209.485 87.0937,303.781 -0.033,2.621 -1.1454,5.212 -3.0231,7.04 -1.8776,1.828 -4.4972,2.872 -7.1177,2.835 -2.6205,-0.04 -5.2097,-1.154 -7.0352,-3.034 -1.8255,-1.88 -2.8648,-4.502 -2.824,-7.122 1.3409,-90.473 -21.7384,-186.632 -83.9687,-292.719 -52.7152,-59.571 -95.828,-111.875 -118.5938,-159.219 -11.4421,-23.795 -17.8251,-46.533 -16.875,-68.406 0.9501,-21.872 9.6143,-42.583 26.4063,-60.625 1.7899,-1.976 4.3978,-3.188 7.0625,-3.281 z m 811.3125,8.562 c 3.6605,-0.107 7.3015,1.977 9.0625,5.188 31.4583,55.452 15.806,113.768 -15.1875,167.062 -30.9936,53.295 -77.3916,103.755 -111.25,148.219 -82.737,108.653 -82.728,174.134 -93.75,270.781 -0.2987,2.602 -1.6664,5.065 -3.7172,6.693 -2.0508,1.629 -4.7593,2.403 -7.3609,2.104 -2.6017,-0.298 -5.0644,-1.666 -6.6928,-3.717 -1.6285,-2.051 -2.4028,-4.759 -2.1041,-7.361 10.9119,-95.682 12.571,-168.806 97.7187,-280.625 34.7465,-45.63 80.5091,-95.661 109.875,-146.156 29.3659,-50.495 42.2496,-99.258 15.0938,-147.125 -1.7488,-2.976 -1.8014,-6.876 -0.1335,-9.899 1.668,-3.022 4.9956,-5.057 8.446,-5.164 z m -722,826.157 c 1.5053,-0.05 2.9794,0.119 4.3125,0.406 10.6645,2.294 19.0842,10.031 33.8125,25.156 1.8684,1.869 2.9481,4.502 2.9292,7.144 -0.019,2.642 -1.1363,5.26 -3.0313,7.101 -1.895,1.841 -4.5435,2.883 -7.1851,2.826 -2.6416,-0.06 -5.2427,-1.212 -7.0566,-3.133 -7.6374,-7.844 -13.4505,-12.535 -17.6562,-15.563 1.9228,11.203 8.7182,30.877 12.6562,40.531 3.4572,8.476 8.8472,15.292 14.0625,22.125 5.2153,6.834 11.2906,14.161 10.9375,24.844 0.039,2.697 -1.0685,5.392 -2.9931,7.282 -1.9247,1.89 -4.6395,2.948 -7.3353,2.859 -2.6958,-0.09 -5.3353,-1.323 -7.1317,-3.335 -1.7964,-2.011 -2.7249,-4.773 -2.5086,-7.462 0.049,-1.479 -1.9015,-5.545 -6.875,-12.063 -4.9736,-6.517 -11.9267,-15.015 -16.6875,-26.687 -4.7281,-11.592 -14.0548,-34.318 -14.875,-51.625 -0.2051,-4.327 -0.2513,-8.697 2.75,-13.563 1.5006,-2.432 4.1373,-4.838 7.25,-5.968 1.5563,-0.566 3.1196,-0.829 4.625,-0.875 z m 620.3437,6.937 c 4.2481,0.07 9.1793,1.544 12.4375,5.344 3.7237,4.343 4.1962,9.477 3.8438,13.906 -0.7049,8.858 -4.5904,18.235 -10.8438,30.688 -6.2534,12.452 -15.1053,27.558 -26.4062,45.312 -1.4069,2.21 -3.7149,3.826 -6.2722,4.394 -2.5572,0.567 -5.3324,0.08 -7.5416,-1.329 -2.2093,-1.408 -3.8255,-3.716 -4.3922,-6.273 -0.5667,-2.558 -0.077,-5.333 1.331,-7.542 11.0759,-17.4 19.6404,-32.05 25.4062,-43.531 4.204,-8.371 6.7666,-15.204 7.9688,-19.531 -3.7001,1.317 -9.0693,3.59 -16.8438,8.375 -2.23,1.472 -5.065,1.996 -7.674,1.418 -2.609,-0.578 -4.9572,-2.251 -6.3566,-4.527 -1.3993,-2.277 -1.8311,-5.127 -1.1688,-7.716 0.6623,-2.589 2.4099,-4.882 4.7307,-6.207 12.1912,-7.502 20.8533,-12.026 30,-12.718 0.5716,-0.04 1.1743,-0.07 1.7812,-0.06 z m -135.125,45.594 c -24.8456,119.633 -43.2128,241.088 -64.2812,334.281 -11.4257,30.703 -25.8463,106.819 -38.5625,162.844 -20.9533,92.315 -59.5173,206.631 -84.5625,208.594 -24.5658,1.925 -69.7959,-113.141 -82.1563,-192.875 -11.9844,-77.309 -43.3799,-130.191 -43.5312,-179.969 -0.2869,-94.312 -3.4569,-217.167 -25.4688,-320.031 13.674,39.919 31.316,96.58 42.6563,144.25 12.4544,52.353 19.1626,93.866 48.3437,90.468 24.9939,43.234 25.5486,81.753 30.0938,111.594 41.8105,274.509 34.588,-108.984 48.9062,-259.156 4.2509,110.616 1.5022,268.227 1.6563,312.844 0.1502,43.514 9.2694,81.212 28.7187,-69.375 3.1435,-24.339 19.2397,-57.865 24.9063,-91.469 19.9665,20.258 31.2034,-5.434 47.8125,-63.281 17.084,-59.502 43.5913,-138.948 65.4687,-188.719 z"
       id="path5569"
       style="fill:none;stroke:#ff3000;stroke-width:1;stroke-miterlimit:4;stroke-opacity:1;stroke-dasharray:none" />
    <path
       d="m 1037.5971,1794.031 c -14.8535,291.996 401.4934,272.497 383.8579,-8.081 -20.4886,-242.708 -45.7861,-477.804 -72.6488,-746.763 C 1309.8699,661.647 1276.1119,340.688 1247.7088,0 c -46.6681,398.474 -93.0434,761.249 -140.0043,1195.422 -15.1801,140.347 -44.7271,383.989 -70.1074,598.609 z"
       id="path3005"
       style="fill:#ffffff;fill-opacity:1;stroke:#ff3000;stroke-width:20;stroke-linejoin:round;stroke-miterlimit:4;stroke-opacity:1;stroke-dasharray:none" />
    <path
       d="m 660.5439,2449.171 c 17.5336,298.17 95.1624,265.253 104.2812,297.125 59.3458,115.704 87.9379,218.415 97.1563,305.719 7.6735,31.653 -9.2052,69.441 25.7187,94.281 24.8668,3.705 42.3432,14.804 25.7188,60 -4.337,22.201 6.1207,40.874 38.5625,55.719 91.9767,88.616 66.0711,163.64 64.2812,241.437 -2.0354,149.894 14.1935,255.597 28.6563,358.157 6.8257,48.403 3.2629,106.082 15.625,148.968 17.096,37.337 47.0783,43.687 70.6875,51.719 0.336,-14.512 -5.747,-46.745 7.125,-54.125 10.5146,0.612 1.6746,45.742 2.875,55.281 -0.032,0.78 -0.2923,1.52 -0.6875,2.188 0.5735,0.222 1.1468,0.426 1.7187,0.656 19.8033,19.036 50.3277,27.512 73,31.375 -0.01,-0.133 -0.033,-0.272 -0.031,-0.406 0,-12.694 -5.2475,-39.811 4.9375,-49.094 7.6772,6.725 3.6444,40.49 5.0625,49.094 0.01,0.647 -0.1243,1.287 -0.375,1.875 0.091,0.01 0.1911,0.02 0.2813,0.03 35.5029,11.19 60.3528,0.807 87.6562,-33.719 -0.7421,-0.84 -1.2359,-1.88 -1.2812,-3 1.1196,-9.094 -7.5079,-51.676 2.875,-52.281 12.5617,6.802 6.7672,37.419 7.125,51.188 20.2458,0.83 34.5047,-27.067 54.75,-43.625 28.5689,-64.842 36.703,-170.584 46.9062,-272.157 18.5535,-175.721 7.7939,-276.119 20.25,-400.718 50.6792,-52.912 88.6732,-103.781 101.4063,-164.282 -10.3322,-9.083 23.8636,-16.426 31.4375,-42.843 9.4109,-35.326 21.8098,-113.976 55.1875,-219.688 31.854,-124.042 150.9956,-219.211 169.9221,-366.031 m -881.7661,397.47 c 1.5053,-0.05 2.9794,0.119 4.3125,0.406 10.6645,2.294 19.0842,10.031 33.8125,25.156 1.8684,1.869 2.9481,4.502 2.9292,7.144 -0.019,2.642 -1.1363,5.26 -3.0313,7.101 -1.895,1.841 -4.5435,2.883 -7.1851,2.826 -2.6416,-0.06 -5.2427,-1.212 -7.0566,-3.133 -7.6374,-7.844 -13.4505,-12.535 -17.6562,-15.563 1.9228,11.203 8.7182,30.877 12.6562,40.531 3.4572,8.476 8.8472,15.292 14.0625,22.125 5.2153,6.834 11.2906,14.161 10.9375,24.844 0.039,2.697 -1.0685,5.392 -2.9931,7.282 -1.9247,1.89 -4.6395,2.948 -7.3353,2.859 -2.6958,-0.09 -5.3353,-1.323 -7.1317,-3.335 -1.7964,-2.011 -2.7249,-4.773 -2.5086,-7.462 0.049,-1.479 -1.9015,-5.545 -6.875,-12.063 -4.9736,-6.517 -11.9267,-15.015 -16.6875,-26.687 -4.7281,-11.592 -14.0548,-34.318 -14.875,-51.625 -0.2051,-4.327 -0.2513,-8.697 2.75,-13.563 1.5006,-2.432 4.1373,-4.838 7.25,-5.968 1.5563,-0.566 3.1196,-0.829 4.625,-0.875 z m 620.3437,6.937 c 4.2481,0.07 9.1793,1.544 12.4375,5.344 3.7237,4.343 4.1962,9.477 3.8438,13.906 -0.7049,8.858 -4.5904,18.235 -10.8438,30.688 -6.2534,12.452 -15.1053,27.558 -26.4062,45.312 -1.4069,2.21 -3.7149,3.826 -6.2722,4.394 -2.5572,0.567 -5.3324,0.08 -7.5416,-1.329 -2.2093,-1.408 -3.8255,-3.716 -4.3922,-6.273 -0.5667,-2.558 -0.077,-5.333 1.331,-7.542 11.0759,-17.4 19.6404,-32.05 25.4062,-43.531 4.204,-8.371 6.7666,-15.204 7.9688,-19.531 -3.7001,1.317 -9.0693,3.59 -16.8438,8.375 -2.23,1.472 -5.065,1.996 -7.674,1.418 -2.609,-0.578 -4.9572,-2.251 -6.3566,-4.527 -1.3993,-2.277 -1.8311,-5.127 -1.1688,-7.716 0.6623,-2.589 2.4099,-4.882 4.7307,-6.207 12.1912,-7.502 20.8533,-12.026 30,-12.718 0.5716,-0.04 1.1743,-0.07 1.7812,-0.06 z m -135.125,45.594 c -24.8456,119.633 -43.2128,241.088 -64.2812,334.281 -11.4257,30.703 -25.8463,106.819 -38.5625,162.844 -20.9533,92.315 -59.5173,206.631 -84.5625,208.594 -24.5658,1.925 -69.7959,-113.141 -82.1563,-192.875 -11.9844,-77.309 -43.3799,-130.191 -43.5312,-179.969 -0.2869,-94.312 -3.4569,-217.167 -25.4688,-320.031 13.674,39.919 31.316,96.58 42.6563,144.25 12.4544,52.353 19.1626,93.866 48.3437,90.468 24.9939,43.234 25.5486,81.753 30.0938,111.594 41.8105,274.509 34.588,-108.984 48.9062,-259.156 4.2509,110.616 1.5022,268.227 1.6563,312.844 0.1502,43.514 9.2694,81.212 28.7187,-69.375 3.1435,-24.339 19.2397,-57.865 24.9063,-91.469 19.9665,20.258 31.2034,-5.434 47.8125,-63.281 17.084,-59.502 43.5913,-138.948 65.4687,-188.719 z"
       id="path6382"
       style="fill:none;stroke:#ff3000;stroke-width:20;stroke-miterlimit:4;stroke-opacity:1;stroke-dasharray:none" />
  </g>
</svg>
